<svg xmlns="http://www.w3.org/2000/svg" width="67.003" height="67.003" viewBox="0 0 67.003 67.003">
  <g id="Group_76237" data-name="Group 76237" transform="translate(-447.498 -499.498)">
    <g id="Group_74704" data-name="Group 74704" transform="translate(2.498 2.498)">
      <g id="Path_23850" data-name="Path 23850" transform="translate(445 497)" fill="none" opacity="0.8">
        <path d="M33.5,0A33.5,33.5,0,1,1,0,33.5,33.5,33.5,0,0,1,33.5,0Z" stroke="none"/>
        <path d="M 33.50152587890625 0.4999923706054688 C 29.04612731933594 0.4999923706054688 24.72426605224609 1.372474670410156 20.6559944152832 3.093215942382812 C 16.72625732421875 4.755355834960938 13.19688415527344 7.134956359863281 10.16592407226562 10.16592407226562 C 7.134956359863281 13.19688415527344 4.755355834960938 16.72625732421875 3.093215942382812 20.6559944152832 C 1.372474670410156 24.72426605224609 0.4999923706054688 29.04612731933594 0.4999923706054688 33.50152587890625 C 0.4999923706054688 37.95692443847656 1.372474670410156 42.27878570556641 3.093215942382812 46.34705352783203 C 4.755355834960938 50.27679443359375 7.134956359863281 53.80616760253906 10.16592407226562 56.83712768554688 C 13.19688415527344 59.86808776855469 16.72625732421875 62.24768447875977 20.6559944152832 63.90982437133789 C 24.72426605224609 65.63056945800781 29.04612731933594 66.50304412841797 33.50152587890625 66.50304412841797 C 37.95692443847656 66.50304412841797 42.27878570556641 65.63056945800781 46.34705352783203 63.90982437133789 C 50.27679443359375 62.24768447875977 53.80616760253906 59.86808776855469 56.83712768554688 56.83712768554688 C 59.86808776855469 53.80616760253906 62.24768447875977 50.27679443359375 63.90982437133789 46.34705352783203 C 65.63056945800781 42.27878570556641 66.50304412841797 37.95692443847656 66.50304412841797 33.50152587890625 C 66.50304412841797 29.04612731933594 65.63056945800781 24.72426605224609 63.90982437133789 20.6559944152832 C 62.24768447875977 16.72625732421875 59.86808776855469 13.19688415527344 56.83712768554688 10.16592407226562 C 53.80616760253906 7.134956359863281 50.27679443359375 4.755355834960938 46.34705352783203 3.093215942382812 C 42.27878570556641 1.372474670410156 37.95692443847656 0.4999923706054688 33.50152587890625 0.4999923706054688 M 33.50152587890625 -7.62939453125e-06 C 52.00390625 -7.62939453125e-06 67.00304412841797 14.9991455078125 67.00304412841797 33.50152587890625 C 67.00304412841797 52.00390625 52.00390625 67.00304412841797 33.50152587890625 67.00304412841797 C 14.9991455078125 67.00304412841797 -7.62939453125e-06 52.00390625 -7.62939453125e-06 33.50152587890625 C -7.62939453125e-06 14.9991455078125 14.9991455078125 -7.62939453125e-06 33.50152587890625 -7.62939453125e-06 Z" stroke="none" fill="#785cb0"/>
      </g>
      <path id="Path_23849" data-name="Path 23849" d="M33.5,0A33.5,33.5,0,1,1,0,33.5,33.5,33.5,0,0,1,33.5,0Z" transform="translate(445 497)" fill="#785cb0" opacity="0.1"/>
    </g>
    <g id="Group_74699" data-name="Group 74699" transform="translate(466.37 517.37)">
      <path id="Path_23842" data-name="Path 23842" d="M.153,455.062a.857.857,0,0,0,.7.368H28.4a.857.857,0,0,0,.8-1.158,7.1,7.1,0,0,0-1.212-1.971.856.856,0,0,0-.65-.3H1.917a.856.856,0,0,0-.65.3,7.1,7.1,0,0,0-1.212,1.971.856.856,0,0,0,.1.789Z" transform="translate(0 -426.17)" fill="#785cb0"/>
      <path id="Path_23843" data-name="Path 23843" d="M60,241h5.2v10.344H60Z" transform="translate(-56.571 -227.227)" fill="#785cb0"/>
      <path id="Path_23844" data-name="Path 23844" d="M211,241h5.143v10.344H211Z" transform="translate(-198.942 -227.227)" fill="#785cb0"/>
      <path id="Path_23845" data-name="Path 23845" d="M361,241h5.2v10.344H361Z" transform="translate(-340.37 -227.227)" fill="#785cb0"/>
      <path id="Path_23846" data-name="Path 23846" d="M1.855,154.177a.866.866,0,0,0,.606.252H26.8a.866.866,0,0,0,.606-.252A7.468,7.468,0,0,0,29.26,151H0A7.468,7.468,0,0,0,1.855,154.177Z" transform="translate(0 -142.371)" fill="#785cb0"/>
      <path id="Path_23847" data-name="Path 23847" d="M37.716,6.915,24.015.091a.858.858,0,0,0-.767,0L9.547,6.915Z" transform="translate(-9.002)" fill="#785cb0"/>
    </g>
  </g>
</svg>
