<svg xmlns="http://www.w3.org/2000/svg" width="26.537" height="26.537" viewBox="0 0 26.537 26.537">
  <path id="Path_23791" data-name="Path 23791" d="M25.431,24.326V10.5A.553.553,0,0,0,25.1,10l-7.74-3.317a.553.553,0,0,0-.771.509V24.326H15.48V.829A.829.829,0,0,0,14.355.054L2.745,4.477a.83.83,0,0,0-.534.775V24.326H1.106a1.106,1.106,0,0,0,0,2.211H25.431a1.106,1.106,0,0,0,0-2.211ZM22.114,14.1a.829.829,0,0,1,1.659,0v1.659a.829.829,0,0,1-1.659,0Zm0,6.634a.829.829,0,0,1,1.659,0v1.659a.829.829,0,0,1-1.659,0ZM18.244,14.1a.829.829,0,0,1,1.659,0v1.659a.829.829,0,0,1-1.659,0Zm0,6.634a.829.829,0,0,1,1.659,0v1.659a.829.829,0,0,1-1.659,0ZM10.5,7.464a.829.829,0,0,1,1.659,0V9.122a.829.829,0,0,1-1.659,0Zm0,6.634a.829.829,0,0,1,1.659,0v1.659a.829.829,0,0,1-1.659,0Zm0,6.634a.829.829,0,0,1,1.659,0v1.659a.829.829,0,0,1-1.659,0ZM5.529,7.464a.829.829,0,0,1,1.659,0V9.122a.829.829,0,0,1-1.659,0Zm0,6.634a.829.829,0,0,1,1.659,0v1.659a.829.829,0,0,1-1.659,0Zm0,6.634a.829.829,0,0,1,1.659,0v1.659a.829.829,0,0,1-1.659,0Z" transform="translate(0 0)" fill="#075247" opacity="0.5"/>
</svg>
