<svg xmlns="http://www.w3.org/2000/svg" width="36" height="36" viewBox="0 0 36 36">
  <g id="Group_79684" data-name="Group 79684" transform="translate(-455 -476)">
    <circle id="Ellipse_532" data-name="Ellipse 532" cx="18" cy="18" r="18" transform="translate(455 476)" fill="#fff"/>
    <g id="Group_74657" data-name="Group 74657" transform="translate(463.063 483.063)">
      <path id="Path_23776" data-name="Path 23776" d="M16.924,22.848a5.924,5.924,0,1,1,5.924-5.924A5.931,5.931,0,0,1,16.924,22.848Zm0-10.937a5.013,5.013,0,1,0,5.013,5.013A5.019,5.019,0,0,0,16.924,11.911Z" transform="translate(-0.974 -0.974)" fill="#075247"/>
      <path id="Path_23777" data-name="Path 23777" d="M17.456,20.557A.456.456,0,0,1,17,20.1V16.456a.456.456,0,1,1,.911,0V20.1A.456.456,0,0,1,17.456,20.557Z" transform="translate(-1.506 -1.417)" fill="#075247"/>
      <ellipse id="Ellipse_533" data-name="Ellipse 533" cy="0.5" ry="0.5" transform="translate(15.937 12.937)" fill="#075247"/>
      <path id="Path_23778" data-name="Path 23778" d="M8.658,19.406H2.279A2.281,2.281,0,0,1,0,17.127V5.279A2.281,2.281,0,0,1,2.279,3H4.1a.456.456,0,1,1,0,.911H2.279A1.369,1.369,0,0,0,.911,5.279V17.127a1.369,1.369,0,0,0,1.367,1.367h6.38a.456.456,0,1,1,0,.911Z" transform="translate(0 -0.266)" fill="#075247"/>
      <path id="Path_23779" data-name="Path 23779" d="M10.836,5.469H5.367A1.369,1.369,0,0,1,4,4.1V2.279a.456.456,0,0,1,.456-.456H5.868a2.279,2.279,0,0,1,4.466,0h1.413a.456.456,0,0,1,.456.456V4.1A1.369,1.369,0,0,1,10.836,5.469ZM4.911,2.734V4.1a.456.456,0,0,0,.456.456h5.469a.456.456,0,0,0,.456-.456V2.734H9.924a.456.456,0,0,1-.456-.456,1.367,1.367,0,1,0-2.734,0,.456.456,0,0,1-.456.456Z" transform="translate(-0.354)" fill="#075247"/>
      <path id="Path_23780" data-name="Path 23780" d="M12.57,8.911H3.456a.456.456,0,1,1,0-.911H12.57a.456.456,0,1,1,0,.911Z" transform="translate(-0.266 -0.709)" fill="#075247"/>
      <path id="Path_23781" data-name="Path 23781" d="M9.836,11.911H3.456a.456.456,0,1,1,0-.911h6.38a.456.456,0,1,1,0,.911Z" transform="translate(-0.266 -0.974)" fill="#075247"/>
      <path id="Path_23782" data-name="Path 23782" d="M8.013,14.911H3.456a.456.456,0,1,1,0-.911H8.013a.456.456,0,1,1,0,.911Z" transform="translate(-0.266 -1.24)" fill="#075247"/>
      <path id="Path_23783" data-name="Path 23783" d="M16.1,8.469a.456.456,0,0,1-.456-.456V5.279a1.369,1.369,0,0,0-1.367-1.367H12.456a.456.456,0,1,1,0-.911h1.823a2.281,2.281,0,0,1,2.279,2.279V8.013A.456.456,0,0,1,16.1,8.469Z" transform="translate(-1.063 -0.266)" fill="#075247"/>
    </g>
  </g>
</svg>
