<?xml version="1.0" encoding="UTF-8"?>
<svg id="Layer_2" data-name="Layer 2" xmlns="http://www.w3.org/2000/svg" xmlns:xlink="http://www.w3.org/1999/xlink" viewBox="0 0 2036.51 723.22">
  <defs>
    <style>
      .cls-1 {
        fill: none;
      }

      .cls-2 {
        fill: #fff;
      }

      .cls-3 {
        clip-path: url(#clippath);
      }
    </style>
    <clipPath id="clippath">
      <rect class="cls-1" width="2036.51" height="723.22"/>
    </clipPath>
  </defs>
  <g id="Layer_3" data-name="Layer 3">
    <g class="cls-3">
      <g>
        <path class="cls-2" d="M535.42,116.8h-173.81c-135.2,0-244.81,109.6-244.81,244.81,0,67.6,27.41,128.8,71.71,173.1,44.3,44.3,105.5,71.71,173.1,71.71,135.21,0,244.81-109.61,244.81-244.81v-173.81c0-39.21-31.79-71-71-71ZM474.68,253.23c19.33,0,35,15.68,35,35.02s-15.68,35.02-35,35.02-35.02-15.68-35.02-35.02,15.68-35.02,35.02-35.02ZM361.61,511.34c-82.65-.09-149.62-67.08-149.72-149.73.09-82.65,67.07-149.64,149.72-149.73v66.87c-45.73.05-82.8,37.12-82.85,82.86.05,45.74,37.12,82.8,82.85,82.86,45.74-.06,82.8-37.12,82.86-82.86h66.87c-.09,82.65-67.07,149.64-149.73,149.73Z"/>
        <g>
          <g>
            <path class="cls-2" d="M686.12,303.68c6.43-12.87,15.2-22.77,26.29-29.71,11.09-6.93,23.47-10.4,37.13-10.4,11.68,0,21.93,2.38,30.75,7.13,8.81,4.75,15.6,10.99,20.35,18.72v-23.47h50.8v165.77h-50.8v-23.47c-4.95,7.72-11.84,13.96-20.65,18.72-8.81,4.75-19.06,7.13-30.75,7.13-13.47,0-25.75-3.51-36.84-10.55-11.09-7.03-19.86-17.03-26.29-30-6.44-12.97-9.66-27.97-9.66-45.01s3.22-31.98,9.66-44.86ZM790.09,318.83c-7.03-7.32-15.6-10.99-25.7-10.99s-18.67,3.62-25.7,10.84c-7.03,7.23-10.55,17.18-10.55,29.86s3.51,22.73,10.55,30.15c7.03,7.43,15.6,11.14,25.7,11.14s18.66-3.66,25.7-10.99c7.03-7.33,10.55-17.33,10.55-30s-3.52-22.68-10.55-30Z"/>
            <path class="cls-2" d="M887.83,303.68c6.43-12.87,15.2-22.77,26.29-29.71,11.09-6.93,23.47-10.4,37.13-10.4,10.89,0,20.84,2.28,29.86,6.83,9.01,4.56,16.09,10.7,21.24,18.42v-76.94h50.8v219.84h-50.8v-23.77c-4.75,7.92-11.54,14.26-20.35,19.01-8.81,4.75-19.06,7.13-30.75,7.13-13.67,0-26.04-3.51-37.13-10.55-11.09-7.03-19.86-17.03-26.29-30-6.44-12.97-9.66-27.97-9.66-45.01s3.22-31.98,9.66-44.86ZM991.8,318.83c-7.03-7.32-15.6-10.99-25.7-10.99s-18.67,3.62-25.7,10.84c-7.03,7.23-10.55,17.18-10.55,29.86s3.51,22.73,10.55,30.15c7.03,7.43,15.6,11.14,25.7,11.14s18.66-3.66,25.7-10.99c7.03-7.33,10.55-17.33,10.55-30s-3.52-22.68-10.55-30Z"/>
            <path class="cls-2" d="M1163.06,272.04c8.91-5.24,18.81-7.87,29.71-7.87v53.77h-13.96c-12.68,0-22.18,2.72-28.52,8.17-6.34,5.45-9.51,15-9.51,28.67v76.94h-50.8v-165.77h50.8v27.63c5.94-9.11,13.37-16.29,22.28-21.54Z"/>
            <path class="cls-2" d="M1243.27,241v77.54h78.72v17.23h-78.72v78.73h87.64v17.23h-108.43v-207.95h108.43v17.23h-87.64Z"/>
            <path class="cls-2" d="M1372.5,306.5c6.73-12.57,15.99-22.28,27.78-29.11,11.78-6.83,25.1-10.25,39.96-10.25s27.13,3.47,38.62,10.4c11.48,6.94,19.9,15.94,25.25,27.03v-92.69h20.8v219.84h-20.8v-36.24c-4.95,11.29-13.07,20.55-24.36,27.78-11.29,7.23-24.56,10.84-39.81,10.84s-28.18-3.46-39.96-10.4c-11.79-6.93-20.99-16.73-27.63-29.41-6.64-12.67-9.95-27.33-9.95-43.97s3.37-31.24,10.1-43.82ZM1496.08,316.16c-5.35-9.9-12.63-17.53-21.83-22.88-9.21-5.35-19.36-8.02-30.45-8.02s-21.79,2.58-30.9,7.72c-9.11,5.15-16.29,12.63-21.54,22.43-5.25,9.8-7.87,21.44-7.87,34.91s2.62,24.91,7.87,34.91c5.24,10,12.43,17.63,21.54,22.88,9.11,5.25,19.41,7.87,30.9,7.87s21.24-2.67,30.45-8.02c9.21-5.35,16.49-12.97,21.83-22.88,5.35-9.9,8.02-21.39,8.02-34.46s-2.67-24.55-8.02-34.46Z"/>
            <path class="cls-2" d="M1680.26,277.84c11.29,7.13,19.41,16.14,24.36,27.03v-35.35h20.8v166.36c0,14.85-3.22,28.02-9.66,39.51-6.44,11.48-15.4,20.35-26.89,26.59-11.49,6.24-24.56,9.36-39.21,9.36-20.8,0-38.08-4.95-51.84-14.85-13.77-9.91-22.33-23.37-25.7-40.4h20.5c3.57,11.29,10.35,20.3,20.35,27.03,10,6.73,22.23,10.1,36.69,10.1,10.5,0,19.9-2.23,28.22-6.68,8.32-4.46,14.85-11.04,19.61-19.76,4.75-8.72,7.13-19.01,7.13-30.9v-40.11c-5.15,11.09-13.32,20.25-24.51,27.48-11.19,7.23-24.41,10.84-39.66,10.84s-28.18-3.46-39.96-10.4c-11.79-6.93-20.99-16.73-27.63-29.41-6.64-12.67-9.95-27.33-9.95-43.97s3.31-31.24,9.95-43.82c6.63-12.57,15.84-22.28,27.63-29.11,11.78-6.83,25.1-10.25,39.96-10.25s28.52,3.57,39.81,10.7ZM1696.6,316.16c-5.35-9.9-12.63-17.53-21.83-22.88-9.21-5.35-19.36-8.02-30.45-8.02s-21.79,2.58-30.9,7.72c-9.11,5.15-16.29,12.63-21.54,22.43-5.25,9.8-7.87,21.44-7.87,34.91s2.62,24.91,7.87,34.91c5.24,10,12.43,17.63,21.54,22.88,9.11,5.25,19.41,7.87,30.9,7.87s21.24-2.67,30.45-8.02c9.21-5.35,16.49-12.97,21.83-22.88,5.35-9.9,8.02-21.39,8.02-34.46s-2.67-24.55-8.02-34.46Z"/>
            <path class="cls-2" d="M1919.11,358.64h-134.58c.59,12.28,3.57,22.78,8.91,31.49,5.35,8.72,12.37,15.3,21.09,19.76,8.71,4.46,18.22,6.68,28.52,6.68,13.47,0,24.81-3.27,34.02-9.8,9.21-6.54,15.3-15.35,18.27-26.44h21.98c-3.96,15.85-12.43,28.77-25.4,38.77-12.97,10-29.26,15-48.87,15-15.25,0-28.92-3.42-41-10.25-12.08-6.83-21.54-16.53-28.37-29.11-6.83-12.57-10.25-27.28-10.25-44.12s3.37-31.59,10.1-44.26c6.73-12.67,16.14-22.38,28.22-29.11,12.08-6.73,25.85-10.1,41.29-10.1s28.97,3.37,40.55,10.1c11.59,6.74,20.5,15.8,26.74,27.18,6.24,11.39,9.36,24.02,9.36,37.88,0,7.13-.2,12.58-.59,16.34ZM1891.33,310.81c-5.05-8.51-11.93-14.95-20.65-19.31-8.72-4.35-18.22-6.54-28.52-6.54-15.45,0-28.62,4.95-39.51,14.85-10.89,9.91-16.93,23.87-18.12,41.89h114.08c.19-12.08-2.23-22.38-7.28-30.9Z"/>
          </g>
          <path class="cls-2" d="M684.57,497.29c-2.5-1.42-4.47-3.4-5.93-5.95-1.45-2.55-2.18-5.41-2.18-8.6s.73-6.05,2.18-8.6c1.45-2.55,3.43-4.53,5.93-5.95,2.5-1.42,5.26-2.13,8.29-2.13s5.84.71,8.34,2.13c2.5,1.42,4.47,3.4,5.9,5.93,1.44,2.53,2.15,5.4,2.15,8.62s-.72,6.09-2.15,8.62c-1.44,2.53-3.4,4.51-5.9,5.93-2.5,1.42-5.28,2.13-8.34,2.13s-5.79-.71-8.29-2.13ZM699.02,494.13c1.83-1.06,3.26-2.58,4.31-4.54,1.05-1.97,1.57-4.25,1.57-6.84s-.52-4.91-1.57-6.86c-1.05-1.95-2.48-3.46-4.29-4.52-1.81-1.06-3.87-1.59-6.18-1.59s-4.37.53-6.18,1.59c-1.81,1.06-3.24,2.57-4.29,4.52-1.05,1.95-1.57,4.24-1.57,6.86s.52,4.87,1.57,6.84c1.05,1.97,2.48,3.48,4.31,4.54,1.83,1.06,3.88,1.59,6.16,1.59s4.33-.53,6.16-1.59Z"/>
          <path class="cls-2" d="M779.94,468.43c2.61,1.33,4.61,3.22,6,5.69,1.39,2.47,2.08,5.37,2.08,8.71s-.7,6.24-2.08,8.69c-1.39,2.45-3.39,4.33-6,5.62-2.61,1.3-5.69,1.94-9.25,1.94h-10.17v-32.65h10.17c3.56,0,6.64.66,9.25,1.99ZM780.34,492.23c2.22-2.23,3.33-5.36,3.33-9.39s-1.12-7.23-3.35-9.51c-2.23-2.28-5.44-3.42-9.63-3.42h-5.9v25.67h5.9c4.22,0,7.43-1.12,9.65-3.35Z"/>
          <path class="cls-2" d="M861.73,499.1l-7.78-13.35h-5.15v13.35h-4.26v-32.65h10.54c2.47,0,4.55.42,6.25,1.26,1.7.84,2.97,1.98,3.82,3.42.84,1.44,1.26,3.08,1.26,4.92,0,2.25-.65,4.23-1.94,5.95-1.3,1.72-3.24,2.86-5.83,3.42l8.2,13.68h-5.11ZM848.8,482.32h6.28c2.31,0,4.04-.57,5.2-1.71,1.16-1.14,1.73-2.66,1.73-4.57s-.57-3.44-1.71-4.5c-1.14-1.06-2.88-1.59-5.22-1.59h-6.28v12.37Z"/>
          <path class="cls-2" d="M926.98,498.91v-31.36h10.12c2.23,0,4.09.43,5.58,1.28,1.5.85,2.62,2.01,3.38,3.47.76,1.46,1.14,3.1,1.14,4.93s-.38,3.47-1.13,4.94c-.76,1.46-1.88,2.62-3.37,3.48-1.49.85-3.34,1.28-5.56,1.28h-7.96v-2.57h7.89c1.64,0,3.01-.31,4.09-.93,1.08-.62,1.89-1.46,2.43-2.53.54-1.07.8-2.29.8-3.66s-.27-2.59-.8-3.66c-.54-1.07-1.35-1.91-2.44-2.53-1.09-.61-2.46-.92-4.13-.92h-7.18v28.79h-2.86Z"/>
          <path class="cls-2" d="M1019.87,467.55v31.36h-2.73v-31.36h2.73Z"/>
          <path class="cls-2" d="M1098.7,499.45c-1.42,0-2.72-.28-3.89-.83-1.17-.56-2.11-1.36-2.8-2.42-.69-1.06-1.04-2.34-1.04-3.85,0-1.16.22-2.14.66-2.94.44-.8,1.06-1.45,1.87-1.96.81-.51,1.76-.91,2.86-1.21,1.1-.3,2.32-.53,3.65-.69,1.32-.16,2.43-.31,3.35-.43.91-.12,1.61-.32,2.09-.58.48-.27.72-.69.72-1.29v-.55c0-1.6-.48-2.87-1.43-3.79-.95-.92-2.33-1.39-4.11-1.39-1.69,0-3.08.37-4.14,1.12-1.07.75-1.81,1.62-2.24,2.63l-2.59-.93c.53-1.29,1.27-2.31,2.21-3.09.94-.77,1.99-1.33,3.15-1.67,1.16-.34,2.34-.51,3.54-.51.9,0,1.84.12,2.81.35.97.23,1.88.64,2.72,1.22.84.58,1.52,1.38,2.04,2.4.52,1.03.78,2.33.78,3.9v15.97h-2.73v-3.72h-.17c-.33.69-.81,1.37-1.45,2.02-.64.65-1.45,1.19-2.42,1.61-.97.42-2.11.63-3.41.63ZM1099.06,496.95c1.45,0,2.71-.32,3.77-.97,1.06-.64,1.88-1.5,2.46-2.57.58-1.07.87-2.24.87-3.53v-3.4c-.2.19-.54.37-1.02.52-.47.15-1.02.29-1.64.41-.62.12-1.23.22-1.85.3-.61.08-1.16.15-1.65.21-1.33.16-2.46.42-3.4.77s-1.66.82-2.16,1.43c-.5.61-.75,1.39-.75,2.34,0,1.43.51,2.53,1.53,3.32,1.02.78,2.3,1.17,3.84,1.17Z"/>
          <path class="cls-2" d="M1186.57,475.39v2.37h-11.23v-2.37h11.23ZM1178.85,469.75h2.74v23.02c0,.98.17,1.75.51,2.3.34.56.78.95,1.32,1.18.54.23,1.12.34,1.73.34.36,0,.66-.02.92-.07.25-.05.48-.09.67-.15l.58,2.47c-.27.1-.59.2-.98.28-.39.09-.87.13-1.44.13-1,0-1.96-.22-2.89-.66-.92-.44-1.68-1.09-2.27-1.96-.59-.87-.89-1.95-.89-3.23v-23.66Z"/>
          <path class="cls-2" d="M1267.95,475.39v2.37h-11.56v-2.37h11.56ZM1260,498.91v-26.97c0-1.27.29-2.33.88-3.2.59-.87,1.36-1.53,2.3-1.98.95-.45,1.95-.67,3.02-.67.71,0,1.31.06,1.78.18.47.12.85.23,1.13.34l-.8,2.39c-.2-.06-.45-.13-.75-.21-.3-.08-.67-.12-1.12-.12-1.18,0-2.1.33-2.74,1-.64.66-.96,1.61-.96,2.85l-.02,26.4h-2.73Z"/>
          <path class="cls-2" d="M1344.16,499.4c-2.03,0-3.83-.52-5.38-1.55-1.56-1.03-2.77-2.46-3.65-4.28-.88-1.82-1.32-3.93-1.32-6.32s.44-4.53,1.32-6.36c.88-1.83,2.1-3.26,3.65-4.29,1.56-1.03,3.35-1.54,5.38-1.54s3.82.52,5.38,1.55c1.55,1.03,2.77,2.46,3.65,4.29.88,1.83,1.32,3.95,1.32,6.36s-.44,4.49-1.32,6.32c-.88,1.82-2.1,3.25-3.65,4.28-1.56,1.03-3.35,1.55-5.38,1.55ZM1344.16,496.91c1.63,0,3.02-.44,4.15-1.32s1.99-2.05,2.58-3.51c.59-1.46.88-3.07.88-4.82s-.29-3.37-.88-4.84c-.59-1.47-1.45-2.65-2.58-3.54s-2.52-1.33-4.15-1.33-3,.44-4.14,1.33c-1.14.89-2,2.07-2.59,3.54-.59,1.47-.88,3.08-.88,4.84s.29,3.36.88,4.82c.59,1.46,1.45,2.63,2.58,3.51,1.13.88,2.52,1.32,4.15,1.32Z"/>
          <path class="cls-2" d="M1420.21,498.91v-23.52h2.65v3.61h.2c.47-1.18,1.29-2.14,2.46-2.87,1.17-.73,2.49-1.1,3.97-1.1.22,0,.47,0,.75.02.28.01.51.02.69.03v2.77c-.12-.02-.34-.05-.64-.09-.31-.04-.64-.06-1-.06-1.23,0-2.32.26-3.27.77-.95.52-1.71,1.23-2.26,2.14-.55.91-.83,1.94-.83,3.11v15.19h-2.73Z"/>
          <path class="cls-2" d="M1492.09,498.91v-23.52h2.65v3.61h.24c.47-1.22,1.25-2.17,2.35-2.87,1.1-.7,2.42-1.05,3.96-1.05,1.62,0,2.96.38,4,1.14,1.05.76,1.83,1.8,2.35,3.13h.2c.53-1.31,1.4-2.35,2.6-3.12,1.2-.77,2.66-1.16,4.37-1.16,2.18,0,3.91.69,5.18,2.06,1.27,1.37,1.9,3.38,1.9,6.01v15.76h-2.73v-15.76c0-1.86-.47-3.25-1.42-4.18-.95-.93-2.2-1.39-3.75-1.39-1.8,0-3.18.55-4.15,1.65-.97,1.1-1.45,2.5-1.45,4.2v15.48h-2.79v-16c0-1.59-.44-2.88-1.33-3.86-.89-.98-2.14-1.47-3.75-1.47-1.08,0-2.05.27-2.92.8-.86.53-1.54,1.27-2.04,2.21-.5.94-.74,2.03-.74,3.25v15.07h-2.73Z"/>
        </g>
      </g>
    </g>
  </g>
</svg>