<svg xmlns="http://www.w3.org/2000/svg" width="11.952" height="14.919" viewBox="0 0 11.952 14.919">
  <g id="Layer_2" data-name="Layer 2" transform="translate(-8 -4.047)" opacity="0.5">
    <path id="Path_23864" data-name="Path 23864" d="M16.88,8.275a20.5,20.5,0,0,1-2.568-4.035.389.389,0,0,0-.672,0,20.5,20.5,0,0,1-2.568,4.034,20.522,20.522,0,0,1-2.935,2.935.373.373,0,0,0,0,.579,20.521,20.521,0,0,1,2.935,2.935,20.5,20.5,0,0,1,2.568,4.034.373.373,0,0,0,.672,0,20.467,20.467,0,0,1,5.5-6.969.373.373,0,0,0,0-.579A20.522,20.522,0,0,1,16.88,8.275Z" transform="translate(0)" fill="#5c3d88"/>
  </g>
</svg>
