<svg xmlns="http://www.w3.org/2000/svg" xmlns:xlink="http://www.w3.org/1999/xlink" width="17.991" height="29.012" viewBox="0 0 17.991 29.012">
  <defs>
    <clipPath id="clip-path">
      <rect id="Rectangle_17318" data-name="Rectangle 17318" width="11.555" height="10.2" fill="#dda700"/>
    </clipPath>
    <clipPath id="clip-path-2">
      <rect id="Rectangle_17319" data-name="Rectangle 17319" width="9.894" height="10.608" fill="#dda700"/>
    </clipPath>
    <clipPath id="clip-path-3">
      <rect id="Rectangle_17320" data-name="Rectangle 17320" width="16.668" height="29.012" fill="#dda700"/>
    </clipPath>
  </defs>
  <g id="Group_74713" data-name="Group 74713" transform="translate(-9497.208 145.969)">
    <g id="Group_74706" data-name="Group 74706" transform="translate(9497.208 -138.372)">
      <g id="Group_74705" data-name="Group 74705" transform="translate(0 0)" clip-path="url(#clip-path)">
        <path id="Path_23851" data-name="Path 23851" d="M12.947,19.985l-6.4,10.2H3.709l-2.316-10.2H4.35l1.457,6.63,4.168-6.63Z" transform="translate(-1.392 -19.985)" fill="#dda700"/>
      </g>
    </g>
    <g id="Group_74709" data-name="Group 74709" transform="translate(9503.816 -132.31)">
      <g id="Group_74708" data-name="Group 74708" transform="translate(0 0)" clip-path="url(#clip-path-2)">
        <path id="Path_23852" data-name="Path 23852" d="M20.211,40.8a6.189,6.189,0,0,1-1.85-.787L19.5,37.853a6.282,6.282,0,0,0,1.647.75,6.216,6.216,0,0,0,1.748.255,2.824,2.824,0,0,0,1.289-.24.734.734,0,0,0,.459-.663.628.628,0,0,0-.415-.568,7.587,7.587,0,0,0-1.29-.437,13.41,13.41,0,0,1-1.646-.532,2.936,2.936,0,0,1-1.13-.823,2.163,2.163,0,0,1-.473-1.457,3.176,3.176,0,0,1,.6-1.916,3.831,3.831,0,0,1,1.7-1.275,6.85,6.85,0,0,1,2.594-.451,8.794,8.794,0,0,1,2.04.226,5.544,5.544,0,0,1,1.632.648l-1.049,2.142a4.83,4.83,0,0,0-1.319-.576,5.6,5.6,0,0,0-1.479-.2,2.747,2.747,0,0,0-1.348.277.815.815,0,0,0-.488.714.635.635,0,0,0,.423.583,7.738,7.738,0,0,0,1.311.437,12.609,12.609,0,0,1,1.639.51,2.886,2.886,0,0,1,1.114.8,2.083,2.083,0,0,1,.467,1.413,3.126,3.126,0,0,1-.6,1.9A3.868,3.868,0,0,1,25.2,40.651a6.855,6.855,0,0,1-2.587.452,9.209,9.209,0,0,1-2.4-.306" transform="translate(-18.361 -30.495)" fill="#dda700"/>
      </g>
    </g>
    <g id="Group_74712" data-name="Group 74712" transform="translate(9498.531 -145.969)">
      <g id="Group_74711" data-name="Group 74711" clip-path="url(#clip-path-3)">
        <path id="Path_23853" data-name="Path 23853" d="M0,29.012c1.085-2.451,2.321-4.886,3.609-7.314.629-1.216,1.314-2.426,1.972-3.638l2.055-3.63,2.133-3.621c.74-1.2,1.449-2.411,2.215-3.612.746-1.2,1.52-2.4,2.3-3.6L16.668,0c-.2.618-.495,1.23-.766,1.842s-.575,1.222-.861,1.833L14.134,5.5c-.3.609-.63,1.216-.944,1.824s-.635,1.216-.968,1.822l-.99,1.819L9.18,14.6l-2.14,3.621c-.741,1.2-1.458,2.41-2.23,3.611-1.515,2.4-3.086,4.8-4.81,7.183" fill="#dda700"/>
      </g>
    </g>
  </g>
</svg>
