<svg xmlns="http://www.w3.org/2000/svg" width="12.194" height="15.883" viewBox="0 0 12.194 15.883">
  <g id="Group_74698" data-name="Group 74698" transform="translate(-59.461 0)">
    <g id="Group_74695" data-name="Group 74695" transform="translate(60.435 5.858)">
      <path id="Path_23837" data-name="Path 23837" d="M275.89,198.274l-2.455-8.9-2.172-.531v2.994l.887,6.627a.465.465,0,0,0,.461.4h2.831A.465.465,0,0,0,275.89,198.274Z" transform="translate(-265.666 -188.838)" fill="#785cb0"/>
      <path id="Path_23838" data-name="Path 23838" d="M95.521,188.838l-2.173.531-2.459,8.9a.465.465,0,0,0,.449.589h2.835a.465.465,0,0,0,.461-.4l.887-6.627Z" transform="translate(-90.873 -188.838)" fill="#785cb0"/>
    </g>
    <g id="Group_74697" data-name="Group 74697" transform="translate(59.461 0)">
      <path id="Path_23839" data-name="Path 23839" d="M151.932,0l3.228,3.228L158.389,0Z" transform="translate(-149.063 -0.001)" fill="#785cb0"/>
      <g id="Group_74696" data-name="Group 74696" transform="translate(0 0)">
        <path id="Path_23840" data-name="Path 23840" d="M65.084,4.071,61.072.059a.2.2,0,0,0-.335.09L59.478,5.367a.6.6,0,0,0,.727.725L65.084,4.9Z" transform="translate(-59.461 0)" fill="#785cb0"/>
        <path id="Path_23841" data-name="Path 23841" d="M276.868,5.367,275.609.148a.2.2,0,0,0-.335-.09l-4.012,4.012V4.9l4.879,1.192a.6.6,0,0,0,.727-.725Z" transform="translate(-264.692 0)" fill="#785cb0"/>
      </g>
    </g>
  </g>
</svg>
